<svg width="153" height="44" viewBox="0 0 153 44" fill="none" xmlns="http://www.w3.org/2000/svg">
  <path d="M53.2717 9.37169V3.46748H81.5919V9.37169H70.7842V38.4924H64.0294V9.37169H53.2717ZM106.376 25.5832C106.376 33.0886 100.021 39.1929 92.1658 39.1929C84.3603 39.1929 77.9557 33.0886 77.9557 25.5832C77.9557 18.0779 84.3603 11.9735 92.1658 11.9735C100.021 11.9735 106.376 18.0279 106.376 25.5832ZM99.8713 25.5832C99.8713 21.2301 96.4689 17.7777 92.1658 17.7777C87.9128 17.7777 84.4603 21.2301 84.4603 25.5832C84.4603 29.9363 87.9128 33.3888 92.1658 33.3888C96.4689 33.3888 99.8713 29.9363 99.8713 25.5832ZM109.982 29.0857V12.624H116.537V27.7848C116.537 30.9871 118.688 33.3388 121.891 33.3388C125.093 33.3388 127.294 31.0872 127.294 27.7848V12.624H133.849V38.4924H127.294V36.1908C125.493 38.0421 122.991 39.0929 120.189 39.0929C114.135 39.0929 109.982 34.6897 109.982 29.0857ZM152.782 18.3781H150.43C147.328 18.3781 144.926 20.6297 144.926 24.5825V38.4924H138.371V12.624H144.876V15.426C146.177 13.5246 148.228 12.3738 151.03 12.3738H152.782V18.3781Z" fill="white"/>
  <path d="M37.1437 17.7219C39.6872 19.1103 39.7499 22.7402 37.256 24.2156L6.25261 42.5574C3.78722 44.0159 0.665202 42.2711 0.615709 39.407L0.00050054 3.80558C-0.0489925 0.941479 3.01088 -0.910228 5.52519 0.462262L37.1437 17.7219Z" fill="#4D8AE5"/>
</svg>
